<svg id="Layer_1" data-name="Layer 1" xmlns="http://www.w3.org/2000/svg" viewBox="0 0 1000 1000"><defs><style>.cls-1{fill:#e12814;}.cls-2{fill:#fff;}</style></defs><rect class="cls-1" width="999" height="999"/><path d="M998.5.5v998H.5V.5h998m1-1H-.5v1000h1000V-.5Z"/><path class="cls-2" d="M521.76,286.33a11.48,11.48,0,0,1,3.21,8.46,18,18,0,0,1-.59,5.25L389.11,701.17q-4.08,14.6-21.57,14.58H273.09q-17.5,0-21.58-14.58L116.25,300a18.15,18.15,0,0,1-1.17-5.25,11,11,0,0,1,3.5-8.46,12.48,12.48,0,0,1,8.74-3.2H239.85q11.07,0,14.58,12.24l78.13,256c.77,2.72,1.75,4.08,2.91,4.08.78,0,1.75-1.55,2.92-4.67l72.88-255.37a14.17,14.17,0,0,1,5.54-9,15.93,15.93,0,0,1,9.62-3.2H513.3A11.47,11.47,0,0,1,521.76,286.33Z"/><path d="M451.13,713.08c-1.95-2.13-2.92-5.15-2.92-9a30.16,30.16,0,0,1,1.75-9.33l141.1-397.64q2.91-7.57,6.41-10.5t11.08-2.91H723.41A19.74,19.74,0,0,1,736,288a28,28,0,0,1,8.45,11.37L884.33,696.47a31.8,31.8,0,0,1,1.17,7,17.05,17.05,0,0,1-2.33,9,7.68,7.68,0,0,1-7,3.79H761.89q-9.92,0-12.83-9.91l-22.74-67.06a18.93,18.93,0,0,0-3.2-5.54c-1-1-2.82-1.45-5.54-1.45H594q-7,0-8.74,6.41l-23.91,68.8q-3.5,8.75-14,8.75H458.71A9.74,9.74,0,0,1,451.13,713.08Zm237.3-179.86q6.41,0,6.41-5.83a35.14,35.14,0,0,0-1.17-5.84l-35-99.7c-.78-1.94-2-2.92-3.5-2.92s-2.72,1-3.49,2.92L616.13,521A13,13,0,0,0,615,526.8q0,6.42,7,6.42Z"/></svg>