<?xml version="1.0" encoding="UTF-8"?>
<!DOCTYPE svg PUBLIC "-//W3C//DTD SVG 1.1//EN" "http://www.w3.org/Graphics/SVG/1.1/DTD/svg11.dtd">
<svg version="1.1" xmlns="http://www.w3.org/2000/svg" xmlns:xlink="http://www.w3.org/1999/xlink" x="0" y="0" width="1000" height="1000" viewBox="0, 0, 1000, 1000">
  <defs>
    <clipPath id="Clip_1">
      <path d="M329.304,565.17 L440.888,537.349 L475.967,678.042 L364.383,705.863 z"/>
    </clipPath>
  </defs>
  <g id="Layer_1">
    <path d="M786,760.5 C786,816.005 741.005,861 685.5,861 C629.995,861 585,816.005 585,760.5 C585,704.995 629.995,660 685.5,660 C741.005,660 786,704.995 786,760.5 z" fill="#FFFFFF"/>
    <path d="M829.5,500 C829.5,681.978 681.978,829.5 500,829.5 C318.022,829.5 170.5,681.978 170.5,500 C170.5,318.022 318.022,170.5 500,170.5 C681.978,170.5 829.5,318.022 829.5,500 z" fill="#F7F7F7"/>
    <path d="M191,590 L188,589 L187,590 L187,591 L189,591 L189,592 L190,593 L191,593 L193,592 L191,590 z M175,584 L174,583 L170,583 L168,584 L169,585 L168,584 L165,585 L164,584 L163,585 L161,586 L165,586 L166,588 L167,588 L169,587 L170,586 L171,586 L175,585 L175,584 z M191,597 L189,596 L188,597 L189,598 L190,600 L192,600 L194,599 L193,599 L191,597 z M177,594 L176,594 L175,595 L176,597 L177,597 L179,596 L178,595 L177,594 z M678,631 L678,633 L679,633 L679,634 L681,634 L681,632 L678,631 z M676,634 L675,635 L674,635 L674,637 L675,636 L676,636 L678,635 L678,633 L677,631 L676,634 z M573,575 L573,574 L569,570 L572,576 L572,578 L571,578 L571,582 L573,579 L573,575 z M777,353 L777,356 L773,358 L778,359 L780,358 L779,357 L777,353 z" fill="#D2D2D2"/>
    <path d="M862,324.7 L861.065,323.765 L860.13,323.765 L861.065,322.83 L860.13,320.961 L860.13,320.026 L859.195,319.091 L857.326,319.091 L856.391,320.026 L856.391,319.091 L855.456,319.091 L855.456,316.286 L854.521,315.351 L855.456,314.416 L855.456,313.482 L854.521,312.547 L851.716,312.547 L850.781,311.612 L849.846,311.612 L849.846,307.872 L846.107,288.24 L841.432,285.435 L839.563,284.5 L837.693,284.5 L836.758,285.435 L836.758,286.37 L833.953,287.305 L832.084,288.24 L831.149,288.24 L830.214,287.305 L830.214,284.5 L826.474,284.5 L819.93,299.458 L819.93,304.133 L818.995,306.002 L818.06,307.872 L818.06,311.612 L818.995,313.482 L818.06,316.286 L818.06,317.221 L816.19,319.091 L815.256,320.961 L815.256,322.83 L814.321,322.83 L814.321,324.7 L812.451,324.7 L811.516,325.635 L810.581,326.57 L808.711,325.635 L807.776,327.505 L806.841,331.244 L786.274,334.984 L769.446,337.789 L768.511,337.789 L766.641,338.724 L764.771,340.593 L761.967,343.398 L758.227,349.007 L758.227,350.877 L756.357,351.812 L755.423,352.747 L754.488,352.747 L754.488,353.682 L753.553,354.617 L752.618,356.486 L753.553,357.421 L753.553,358.356 L754.488,359.291 L755.423,359.291 L755.423,358.356 L754.488,360.226 L754.488,362.096 L755.423,362.096 L755.423,364.9 L754.488,365.835 L753.553,365.835 L751.683,367.705 L750.748,368.64 L750.748,369.575 L748.878,370.51 L747.009,370.51 L744.204,371.445 L742.334,371.445 L741.399,372.38 L740.464,372.38 L739.529,371.445 L733.92,371.445 L730.181,372.38 L727.376,373.314 L723.636,375.184 L722.701,376.119 L723.636,378.924 L724.571,378.924 L724.571,380.794 L725.506,380.794 L726.441,381.729 L726.441,383.598 L725.506,384.533 L724.571,385.468 L724.571,386.403 L723.636,387.338 L722.701,388.273 L720.832,389.208 L720.832,391.077 L718.027,392.012 L718.027,392.947 L712.418,397.622 L709.613,399.491 L705.873,401.361 L702.134,404.166 L699.329,406.036 L697.459,407.905 L697.459,408.84 L696.525,408.84 L694.655,409.775 L692.785,409.775 L690.915,410.71 L689.045,411.645 L689.045,412.58 L688.111,412.58 L686.241,411.645 L686.241,410.71 L684.371,410.71 L684.371,409.775 L683.436,410.71 L681.566,410.71 L679.697,409.775 L678.762,409.775 L677.827,408.84 L676.892,408.84 L677.827,407.905 L677.827,406.971 L678.762,406.971 L678.762,405.101 L679.697,404.166 L678.762,403.231 L678.762,402.296 L679.697,401.361 L679.697,400.426 L681.566,398.557 L683.436,396.687 L685.306,393.882 L685.306,385.468 L683.436,382.663 L681.566,377.054 L680.631,374.249 L679.697,372.38 L677.827,371.445 L676.892,370.51 L675.022,370.51 L674.087,371.445 L672.217,372.38 L672.217,373.314 L671.283,373.314 L670.348,374.249 L670.348,377.054 L669.413,377.054 L668.478,377.989 L668.478,378.924 L665.673,378.924 L665.673,375.184 L666.608,374.249 L667.543,374.249 L667.543,373.314 L668.478,373.314 L668.478,370.51 L670.348,367.705 L671.283,366.77 L670.348,363.966 L670.348,360.226 L669.413,358.356 L667.543,357.421 L667.543,356.486 L668.478,356.486 L670.348,355.552 L669.413,354.617 L668.478,354.617 L668.478,353.682 L667.543,352.747 L667.543,351.812 L666.608,351.812 L665.673,350.877 L664.738,349.942 L660.999,349.942 L660.064,349.007 L658.194,349.007 L657.259,348.072 L656.324,347.138 L653.52,347.138 L654.455,347.138 L654.455,345.268 L653.52,344.333 L652.585,344.333 L650.715,345.268 L650.715,346.203 L651.65,346.203 L650.715,346.203 L650.715,345.268 L649.78,345.268 L649.78,342.463 L650.715,342.463 L651.65,343.398 L652.585,342.463 L659.129,342.463 L659.129,341.528 L659.129,342.463 L660.999,342.463 L662.869,341.528 L663.803,341.528 L663.803,339.658 L662.869,338.724 L661.934,337.789 L660.999,337.789 L660.064,338.724 L660.064,339.658 L657.259,339.658 L657.259,338.724 L656.324,337.789 L655.389,337.789 L656.324,337.789 L656.324,336.854 L655.389,335.919 L655.389,334.049 L654.455,334.049 L655.389,333.114 L654.455,332.179 L652.585,332.179 L652.585,333.114 L650.715,333.114 L649.78,334.049 L644.171,334.049 L644.171,331.244 L645.106,329.375 L641.366,329.375 L639.496,330.31 L638.561,331.244 L636.692,332.179 L633.887,332.179 L632.017,333.114 L630.147,333.114 L629.213,334.049 L627.343,335.919 L625.473,336.854 L624.538,338.724 L623.603,337.789 L622.668,337.789 L622.668,338.724 L621.733,338.724 L620.799,337.789 L618.929,337.789 L618.929,338.724 L617.059,338.724 L616.124,337.789 L615.189,336.854 L614.254,336.854 L612.385,334.049 L610.515,333.114 L604.905,333.114 L603.036,334.984 L603.036,332.179 L604.905,330.31 L604.905,329.375 L606.775,327.505 L606.775,326.57 L608.645,325.635 L609.58,324.7 L608.645,323.765 L603.971,323.765 L602.101,325.635 L601.166,326.57 L599.296,328.44 L599.296,329.375 L597.426,330.31 L596.491,331.244 L595.557,332.179 L595.557,333.114 L594.622,334.049 L593.687,334.984 L591.817,335.919 L590.882,336.854 L589.947,337.789 L588.077,337.789 L585.273,339.658 L584.338,340.593 L582.468,342.463 L580.598,343.398 L579.663,344.333 L577.794,344.333 L575.924,343.398 L574.989,343.398 L575.924,343.398 L575.924,342.463 L576.859,341.528 L577.794,340.593 L577.794,337.789 L578.729,338.724 L578.729,337.789 L579.663,336.854 L579.663,335.919 L577.794,335.919 L577.794,337.789 L575.924,338.724 L572.184,338.724 L570.315,340.593 L569.38,340.593 L567.51,342.463 L566.575,343.398 L562.835,345.268 L560.031,345.268 L564.705,339.658 L567.51,335.919 L571.249,330.31 L572.184,329.375 L574.989,326.57 L579.663,323.765 L581.533,322.83 L583.403,320.961 L584.338,320.026 L585.273,319.091 L587.143,318.156 L583.403,318.156 L581.533,319.091 L580.598,318.156 L579.663,317.221 L576.859,318.156 L571.249,318.156 L570.315,317.221 L567.51,317.221 L565.64,320.026 L563.77,320.961 L562.835,320.961 L560.966,320.026 L558.161,319.091 L556.291,318.156 L553.487,317.221 L551.617,318.156 L551.617,319.091 L549.747,316.286 L548.812,316.286 L546.942,315.351 L545.072,314.416 L540.398,314.416 L538.528,315.351 L537.593,316.286 L536.658,317.221 L534.789,317.221 L533.854,316.286 L531.049,315.351 L523.57,315.351 L522.635,314.416 L522.635,313.482 L521.7,311.612 L520.765,309.742 L519.83,306.937 L519.83,306.002 L518.896,306.002 L517.961,305.068 L514.221,305.068 L516.091,312.547 L492.719,316.286 L412.318,330.31 L271.15,355.552 L269.28,355.552 L258.061,358.356 L189.814,370.51 L191.684,373.314 L191.684,374.249 L192.619,375.184 L193.554,375.184 L194.489,376.119 L194.489,377.989 L195.424,378.924 L193.554,378.924 L193.554,380.794 L194.489,380.794 L193.554,381.729 L193.554,382.663 L192.619,384.533 L193.554,384.533 L192.619,386.403 L190.749,386.403 L189.814,385.468 L188.88,385.468 L187.945,386.403 L179.531,387.338 L178.596,387.338 L177.661,386.403 L173.921,385.468 L171.117,384.533 L169.247,385.468 L170.182,387.338 L170.182,390.143 L171.117,392.947 L172.052,393.882 L174.856,395.752 L175.791,397.622 L177.661,402.296 L179.531,405.101 L179.531,406.971 L180.466,408.84 L181.4,410.71 L182.335,413.515 L183.27,417.254 L183.27,421.929 L185.14,420.994 L184.205,420.994 L185.14,422.864 L186.075,428.473 L187.01,432.213 L187.01,434.082 L187.945,435.017 L187.945,446.236 L188.88,448.106 L188.88,449.975 L189.814,451.845 L188.88,452.78 L189.814,458.389 L190.749,463.999 L189.814,463.999 L189.814,468.673 L188.88,469.608 L188.88,475.217 L187.945,477.087 L187.945,478.957 L189.814,480.827 L190.749,482.697 L190.749,485.501 L191.684,487.371 L192.619,490.176 L193.554,491.111 L194.489,492.045 L194.489,494.85 L196.359,495.785 L196.359,496.72 L197.294,499.525 L198.229,500.459 L197.294,504.199 L198.229,507.004 L198.229,509.808 L197.294,509.808 L197.294,513.548 L196.359,515.418 L197.294,517.287 L198.229,519.157 L201.033,521.027 L204.773,523.832 L204.773,524.767 L205.708,527.571 L206.643,528.506 L206.643,531.311 L208.512,535.05 L209.447,537.855 L213.187,541.595 L215.057,542.529 L216.926,544.399 L218.796,546.269 L219.731,546.269 L219.731,551.878 L221.601,550.009 L223.471,550.943 L224.405,550.943 L225.34,551.878 L226.275,551.878 L226.275,553.748 L227.21,555.618 L228.145,558.423 L229.08,560.292 L232.819,564.032 L235.624,564.032 L236.559,564.967 L237.494,564.967 L237.494,565.902 L236.559,566.837 L236.559,570.576 L237.494,572.446 L240.299,574.316 L243.103,577.12 L244.038,578.055 L244.973,578.99 L245.908,580.86 L247.778,581.795 L249.647,582.73 L251.517,583.665 L251.517,585.534 L252.452,586.469 L254.322,587.404 L255.257,587.404 L255.257,589.274 L256.192,591.144 L256.192,594.883 L258.061,595.818 L258.996,596.753 L259.931,596.753 L262.736,595.818 L272.085,595.818 L273.955,596.753 L273.955,598.623 L275.824,598.623 L279.564,599.558 L282.369,598.623 L283.303,598.623 L285.173,600.493 L285.173,602.362 L287.043,603.297 L287.978,602.362 L288.913,602.362 L290.783,603.297 L292.652,604.232 L297.327,607.037 L299.197,608.907 L300.131,610.776 L300.131,612.646 L302.001,615.451 L302.936,615.451 L302.936,617.321 L330.048,609.842 L330.983,609.842 L330.048,610.776 L330.048,612.646 L378.662,621.06 L402.969,616.386 L412.318,614.516 L411.383,608.907 L431.016,605.167 L431.951,606.102 L433.821,607.037 L435.69,608.907 L436.625,608.907 L439.43,610.776 L444.104,613.581 L446.909,615.451 L449.714,616.386 L450.649,617.321 L451.584,618.256 L453.453,619.19 L455.323,622.93 L456.258,624.8 L457.193,626.67 L459.063,629.474 L460.932,630.409 L461.867,631.344 L462.802,631.344 L464.672,632.279 L465.607,633.214 L467.477,633.214 L470.281,634.149 L473.086,635.084 L475.891,636.018 L476.826,636.018 L477.76,635.084 L478.695,633.214 L479.63,632.279 L480.565,631.344 L479.63,630.409 L480.565,628.539 L480.565,625.735 L481.5,624.8 L483.37,623.865 L484.305,622.93 L485.24,621.995 L486.174,622.93 L488.979,622.93 L491.784,621.995 L495.523,621.995 L496.458,622.93 L500.198,624.8 L500.198,625.735 L502.068,626.67 L503.937,628.539 L505.807,629.474 L505.807,630.409 L507.677,632.279 L509.547,635.084 L510.482,636.018 L511.416,636.953 L511.416,638.823 L513.286,639.758 L514.221,640.693 L516.091,641.628 L517.961,643.498 L519.83,645.367 L521.7,646.302 L522.635,647.237 L523.57,648.172 L523.57,650.977 L524.505,650.977 L524.505,653.781 L527.31,655.651 L528.244,656.586 L529.179,659.391 L530.114,661.26 L534.789,661.26 L535.724,662.195 L536.658,663.13 L539.463,663.13 L541.333,664.065 L549.747,664.065 L551.617,665 L553.487,665 L553.487,664.065 L555.356,663.13 L555.356,660.326 L554.421,660.326 L554.421,658.456 L550.682,651.912 L549.747,646.302 L549.747,645.367 L550.682,642.563 L552.552,636.018 L553.487,635.084 L554.421,634.149 L554.421,633.214 L557.226,631.344 L558.161,630.409 L558.161,628.539 L560.966,627.604 L561.901,626.67 L563.77,624.8 L565.64,623.865 L566.575,622.93 L570.315,619.19 L571.249,617.321 L572.184,616.386 L574.989,614.516 L575.924,611.711 L576.859,610.776 L582.468,607.972 L585.273,607.037 L585.273,606.102 L586.208,606.102 L587.143,605.167 L589.947,605.167 L591.817,604.232 L595.557,604.232 L597.426,605.167 L599.296,606.102 L603.971,605.167 L606.775,604.232 L609.58,605.167 L610.515,605.167 L610.515,602.362 L607.71,602.362 L606.775,603.297 L605.84,602.362 L606.775,601.427 L610.515,601.427 L611.45,603.297 L612.385,604.232 L615.189,604.232 L616.124,605.167 L615.189,605.167 L615.189,607.037 L619.864,607.972 L622.668,607.972 L624.538,607.037 L624.538,605.167 L627.343,605.167 L628.278,607.037 L629.213,607.037 L630.147,606.102 L631.082,605.167 L631.082,601.427 L632.017,601.427 L632.952,602.362 L632.952,603.297 L636.692,603.297 L637.627,604.232 L638.561,605.167 L638.561,607.972 L640.431,607.037 L641.366,605.167 L642.301,606.102 L642.301,605.167 L643.236,604.232 L644.171,604.232 L643.236,602.362 L642.301,602.362 L642.301,601.427 L641.366,600.493 L636.692,600.493 L635.757,599.558 L634.822,598.623 L636.692,596.753 L635.757,596.753 L636.692,596.753 L638.561,594.883 L637.627,593.013 L636.692,592.079 L637.627,592.079 L639.496,593.013 L639.496,591.144 L640.431,587.404 L637.627,590.209 L637.627,591.144 L634.822,591.144 L633.887,593.013 L633.887,593.948 L632.952,593.948 L632.952,593.013 L633.887,592.079 L633.887,591.144 L634.822,591.144 L635.757,590.209 L636.692,589.274 L636.692,588.339 L637.627,588.339 L640.431,587.404 L641.366,586.469 L642.301,586.469 L644.171,587.404 L646.975,586.469 L649.78,586.469 L650.715,585.534 L648.845,586.469 L646.975,587.404 L648.845,588.339 L650.715,587.404 L651.65,587.404 L657.259,585.534 L658.194,585.534 L660.064,584.599 L664.738,583.665 L667.543,581.795 L674.087,581.795 L677.827,582.73 L678.762,583.665 L679.697,583.665 L682.501,585.534 L683.436,585.534 L683.436,587.404 L684.371,589.274 L689.98,589.274 L690.915,588.339 L695.59,584.599 L692.785,585.534 L694.655,584.599 L695.59,584.599 L696.525,583.665 L696.525,581.795 L699.329,580.86 L704.004,582.73 L709.613,587.404 L717.092,592.079 L718.027,593.948 L718.027,594.883 L718.962,598.623 L718.962,602.362 L718.027,607.972 L718.962,608.907 L719.897,609.842 L720.832,610.776 L720.832,609.842 L721.767,609.842 L722.701,608.907 L722.701,607.037 L723.636,607.972 L723.636,607.037 L723.636,607.972 L722.701,608.907 L721.767,610.776 L721.767,611.711 L720.832,612.646 L721.767,613.581 L722.701,613.581 L725.506,618.256 L726.441,619.19 L727.376,620.125 L728.311,620.125 L729.246,622.93 L728.311,621.06 L729.246,624.8 L730.181,625.735 L731.115,625.735 L732.05,626.67 L732.05,624.8 L732.985,624.8 L734.855,628.539 L736.725,630.409 L738.595,631.344 L740.464,632.279 L741.399,632.279 L743.269,634.149 L745.139,636.953 L744.204,636.953 L744.204,638.823 L745.139,640.693 L747.009,639.758 L750.748,639.758 L752.618,637.888 L752.618,638.823 L751.683,639.758 L751.683,640.693 L750.748,642.563 L749.813,641.628 L748.878,642.563 L748.878,643.498 L747.009,644.432 L745.139,645.367 L747.009,646.302 L747.943,645.367 L748.878,645.367 L749.813,644.432 L750.748,643.498 L751.683,642.563 L750.748,644.432 L755.423,638.823 L756.357,634.149 L755.423,635.084 L754.488,632.279 L755.423,630.409 L755.423,629.474 L756.357,630.409 L756.357,624.8 L755.423,618.256 L755.423,615.451 L754.488,612.646 L753.553,611.711 L752.618,609.842 L749.813,604.232 L748.878,603.297 L747.943,602.362 L746.074,599.558 L746.074,598.623 L745.139,597.688 L745.139,595.818 L746.074,593.948 L745.139,593.013 L739.529,587.404 L736.725,582.73 L733.92,578.055 L732.05,573.381 L731.115,572.446 L729.246,566.837 L729.246,561.227 L728.311,562.162 L728.311,560.292 L729.246,560.292 L730.181,558.423 L729.246,557.488 L730.181,556.553 L730.181,555.618 L731.115,553.748 L730.181,553.748 L730.181,551.878 L731.115,551.878 L731.115,550.009 L732.05,549.074 L732.985,548.139 L732.985,546.269 L733.92,545.334 L734.855,544.399 L733.92,543.464 L734.855,543.464 L735.79,542.529 L736.725,541.595 L736.725,540.66 L735.79,539.725 L738.595,539.725 L738.595,538.79 L739.529,538.79 L741.399,537.855 L742.334,536.92 L742.334,535.05 L743.269,535.05 L744.204,534.115 L745.139,532.246 L745.139,531.311 L746.074,531.311 L747.009,530.376 L748.878,528.506 L748.878,527.571 L749.813,528.506 L749.813,524.767 L751.683,521.027 L752.618,519.157 L755.423,517.287 L756.357,516.353 L761.967,515.418 L762.902,517.287 L762.902,510.743 L763.837,508.873 L764.771,508.873 L764.771,507.939 L766.641,506.069 L768.511,504.199 L767.576,504.199 L768.511,504.199 L768.511,503.264 L770.381,502.329 L775.055,501.394 L775.99,501.394 L775.055,503.264 L777.86,501.394 L778.795,501.394 L777.86,501.394 L778.795,498.59 L782.534,493.915 L785.339,492.045 L787.209,491.111 L788.144,490.176 L789.079,489.241 L788.144,489.241 L788.144,485.501 L787.209,484.566 L787.209,483.631 L785.339,479.892 L782.534,476.152 L780.665,471.478 L779.73,470.543 L778.795,468.673 L778.795,467.738 L777.86,466.803 L774.12,466.803 L772.251,467.738 L771.316,467.738 L772.251,467.738 L773.185,466.803 L774.12,465.869 L774.12,464.934 L773.185,463.999 L772.251,463.064 L772.251,462.129 L774.12,462.129 L773.185,460.259 L773.185,458.389 L772.251,458.389 L773.185,457.455 L771.316,457.455 L772.251,456.52 L772.251,452.78 L770.381,451.845 L769.446,451.845 L767.576,449.975 L763.837,449.975 L763.837,449.041 L764.771,449.975 L768.511,449.975 L768.511,450.91 L771.316,451.845 L770.381,449.975 L769.446,448.106 L768.511,447.171 L769.446,447.171 L768.511,445.301 L767.576,444.366 L766.641,441.561 L766.641,437.822 L767.576,435.952 L766.641,435.017 L765.706,434.082 L766.641,434.082 L766.641,433.147 L767.576,432.213 L767.576,433.147 L768.511,431.278 L767.576,434.082 L768.511,435.952 L767.576,435.952 L767.576,439.692 L769.446,438.757 L768.511,438.757 L767.576,442.496 L769.446,441.561 L769.446,440.627 L770.381,441.561 L769.446,442.496 L769.446,445.301 L770.381,447.171 L772.251,447.171 L773.185,448.106 L774.12,447.171 L774.12,448.106 L775.055,447.171 L774.12,449.041 L775.99,449.041 L775.99,451.845 L777.86,451.845 L777.86,452.78 L776.925,453.715 L775.99,456.52 L775.99,463.064 L777.86,464.934 L778.795,461.194 L778.795,459.324 L779.73,458.389 L780.665,457.455 L781.599,457.455 L780.665,455.585 L781.599,452.78 L783.469,451.845 L784.404,449.041 L784.404,447.171 L785.339,444.366 L785.339,439.692 L784.404,440.627 L784.404,439.692 L783.469,439.692 L784.404,438.757 L783.469,436.887 L782.534,436.887 L780.665,435.017 L778.795,433.147 L778.795,430.343 L779.73,430.343 L781.599,432.213 L782.534,431.278 L783.469,431.278 L783.469,435.017 L784.404,435.017 L786.274,434.082 L788.144,430.343 L788.144,428.473 L789.079,428.473 L790.013,427.538 L790.013,424.733 L790.948,426.603 L791.883,422.864 L792.818,424.733 L792.818,419.124 L793.753,415.385 L792.818,417.254 L792.818,410.71 L791.883,408.84 L790.948,409.775 L789.079,409.775 L790.013,409.775 L789.079,409.775 L793.753,407.905 L795.623,406.971 L799.362,406.036 L800.297,406.036 L804.972,402.296 L806.841,402.296 L807.776,401.361 L808.711,400.426 L810.581,399.491 L818.995,393.882 L813.386,395.752 L812.451,396.687 L811.516,395.752 L809.646,396.687 L812.451,392.947 L808.711,395.752 L806.841,397.622 L805.907,397.622 L804.037,398.557 L801.232,399.491 L800.297,399.491 L799.362,400.426 L795.623,400.426 L794.688,401.361 L795.623,400.426 L799.362,397.622 L801.232,396.687 L802.167,394.817 L803.102,395.752 L806.841,394.817 L808.711,393.882 L809.646,393.882 L811.516,392.947 L813.386,392.012 L815.256,392.012 L818.06,391.077 L818.995,389.208 L818.995,390.143 L819.93,389.208 L820.865,389.208 L821.8,388.273 L822.735,387.338 L824.604,387.338 L826.474,384.533 L827.409,384.533 L827.409,386.403 L826.474,388.273 L824.604,389.208 L826.474,390.143 L831.149,388.273 L830.214,387.338 L828.344,386.403 L830.214,385.468 L831.149,384.533 L834.888,382.663 L836.758,382.663 L836.758,381.729 L835.823,379.859 L834.888,377.054 L833.018,376.119 L832.084,375.184 L831.149,375.184 L830.214,376.119 L831.149,377.054 L832.084,377.989 L832.084,377.054 L833.018,377.989 L833.953,379.859 L833.018,380.794 L831.149,381.729 L830.214,381.729 L829.279,380.794 L828.344,378.924 L827.409,377.989 L825.539,374.249 L821.8,374.249 L822.735,372.38 L822.735,371.445 L823.67,370.51 L824.604,369.575 L825.539,368.64 L825.539,366.77 L824.604,367.705 L823.67,367.705 L823.67,366.77 L822.735,365.835 L822.735,362.096 L823.67,361.161 L824.604,357.421 L826.474,354.617 L828.344,351.812 L827.409,350.877 L827.409,349.942 L828.344,348.072 L829.279,348.072 L829.279,349.007 L832.084,349.007 L832.084,347.138 L833.018,348.072 L833.018,347.138 L833.953,346.203 L835.823,346.203 L835.823,345.268 L836.758,344.333 L837.693,344.333 L839.563,343.398 L839.563,340.593 L840.498,336.854 L840.498,335.919 L841.432,335.919 L840.498,337.789 L843.302,337.789 L842.367,337.789 L842.367,339.658 L844.237,339.658 L845.172,338.724 L844.237,338.724 L846.107,338.724 L846.107,336.854 L846.107,337.789 L847.977,338.724 L847.977,336.854 L848.912,336.854 L849.846,335.919 L849.846,334.984 L847.977,334.049 L847.977,333.114 L848.912,334.049 L849.846,335.919 L850.781,334.984 L851.716,334.049 L852.651,334.049 L852.651,331.244 L855.456,331.244 L856.391,330.31 L856.391,329.375 L858.26,328.44 L860.13,328.44 L862,325.635 z M782.534,479.892 z M689.98,587.404 L689.045,588.339 z M670.348,580.86 z M663.803,581.795 z M661.934,581.795 L662.869,581.795 L661.934,581.795 z M554.421,631.344 L554.421,630.409 L554.421,631.344 L555.356,631.344 L554.421,631.344 z M550.682,637.888 L549.747,639.758 L547.877,638.823 L549.747,638.823 L550.682,637.888 z M227.21,547.204 L228.145,547.204 L228.145,548.139 L227.21,549.074 L227.21,547.204 z M229.08,551.878 L230.015,552.813 L230.95,553.748 L229.08,553.748 L229.08,551.878 z M227.21,550.009 L228.145,550.009 L228.145,550.943 L227.21,549.074 z M182.335,408.84 L183.27,408.84 L181.4,409.775 z M770.381,429.408 L770.381,428.473 z M770.381,429.408 z M770.381,466.803 L770.381,465.869 L769.446,465.869 z M195.424,383.598 z M772.251,481.762 L771.316,481.762 z M548.812,649.107 L548.812,651.912 L548.812,650.042 z M194.489,393.882 z M196.359,382.663 z M198.229,389.208 L199.163,389.208 L198.229,390.143 L198.229,391.077 L199.163,392.012 L199.163,392.947 L198.229,392.012 L198.229,391.077 z M199.163,393.882 L199.163,394.817 L200.098,395.752 L199.163,395.752 L199.163,394.817 z M198.229,395.752 L199.163,395.752 z M196.359,402.296 L197.294,403.231 L197.294,401.361 L198.229,401.361 L198.229,402.296 L197.294,403.231 L196.359,402.296 z M194.489,403.231 L195.424,403.231 L194.489,403.231 z M199.163,387.338 L198.229,386.403 L199.163,386.403 L199.163,387.338 L200.098,387.338 z M645.106,346.203 L646.975,346.203 L646.041,347.138 L646.041,349.007 L645.106,349.942 L645.106,350.877 L646.041,351.812 L646.041,352.747 L646.975,353.682 L645.106,353.682 L644.171,355.552 L643.236,356.486 L643.236,360.226 L642.301,360.226 L642.301,361.161 L642.301,358.356 L641.366,357.421 L640.431,357.421 L639.496,359.291 L639.496,361.161 L638.561,362.096 L637.627,362.096 L636.692,363.031 L635.757,363.031 L635.757,365.835 L634.822,366.77 L633.887,367.705 L634.822,368.64 L634.822,375.184 L633.887,376.119 L632.952,377.989 L632.952,378.924 L633.887,379.859 L633.887,380.794 L634.822,382.663 L633.887,385.468 L633.887,386.403 L635.757,389.208 L637.627,392.012 L639.496,394.817 L639.496,396.687 L640.431,399.491 L640.431,406.036 L639.496,407.905 L638.561,410.71 L638.561,411.645 L637.627,413.515 L637.627,414.45 L636.692,415.385 L635.757,415.385 L633.887,418.189 L632.017,418.189 L630.147,419.124 L630.147,418.189 L629.213,418.189 L628.278,417.254 L627.343,416.319 L626.408,413.515 L625.473,412.58 L624.538,411.645 L624.538,410.71 L623.603,408.84 L623.603,406.036 L622.668,404.166 L622.668,400.426 L621.733,400.426 L621.733,398.557 L620.799,398.557 L620.799,395.752 L619.864,394.817 L619.864,393.882 L620.799,392.012 L620.799,389.208 L621.733,387.338 L620.799,386.403 L620.799,380.794 L621.733,378.924 L621.733,370.51 L622.668,369.575 L622.668,367.705 L623.603,365.835 L623.603,363.966 L624.538,363.966 L624.538,361.161 L625.473,360.226 L625.473,359.291 L624.538,359.291 L625.473,359.291 L626.408,358.356 L626.408,356.486 L624.538,356.486 L624.538,355.552 L623.603,358.356 L624.538,358.356 L623.603,358.356 L622.668,359.291 L622.668,360.226 L621.733,361.161 L620.799,362.096 L620.799,363.966 L619.864,365.835 L619.864,366.77 L618.929,367.705 L617.994,367.705 L617.059,368.64 L617.059,370.51 L616.124,371.445 L616.124,372.38 L615.189,372.38 L615.189,373.314 L615.189,370.51 L616.124,368.64 L616.124,367.705 L617.059,366.77 L617.994,365.835 L617.994,363.031 L618.929,361.161 L619.864,359.291 L620.799,357.421 L621.733,354.617 L621.733,353.682 L622.668,353.682 L622.668,351.812 L622.668,352.747 L623.603,353.682 L624.538,352.747 L625.473,351.812 L625.473,349.942 L627.343,349.942 L626.408,350.877 L626.408,352.747 L627.343,353.682 L628.278,353.682 L628.278,352.747 L629.213,350.877 L630.147,349.942 L631.082,349.007 L631.082,347.138 L635.757,347.138 L635.757,346.203 L637.627,345.268 L638.561,344.333 L639.496,343.398 L640.431,343.398 L640.431,342.463 L642.301,343.398 L644.171,343.398 L646.041,344.333 L647.91,345.268 L648.845,346.203 z M627.343,349.942 z M547.877,646.302 L548.812,646.302 z M781.599,479.892 L779.73,481.762 L779.73,480.827 L775.99,480.827 L775.055,481.762 L774.12,481.762 L775.055,480.827 L775.055,479.892 L777.86,479.892 L777.86,478.022 L780.665,478.022 L781.599,478.957 L781.599,479.892 z M778.795,473.348 L779.73,474.283 z M195.424,385.468 L195.424,387.338 L196.359,388.273 L196.359,389.208 L195.424,387.338 L194.489,386.403 L194.489,385.468 z M184.205,414.45 L184.205,416.319 L183.27,413.515 L184.205,413.515 z M550.682,656.586 L550.682,654.716 L551.617,657.521 z M552.552,633.214 L551.617,634.149 L551.617,633.214 z M631.082,591.144 L630.147,591.144 L629.213,593.013 L625.473,593.013 L625.473,591.144 L626.408,590.209 L628.278,590.209 L629.213,591.144 L631.082,591.144 z M188.88,420.059 L188.88,420.994 L189.814,420.994 L186.075,420.994 z M574.054,612.646 L573.119,610.776 L572.184,610.776 L572.184,608.907 L573.119,608.907 L574.054,607.972 L574.054,608.907 L573.119,610.776 L574.989,610.776 L574.054,611.711 z M730.181,619.19 z M818.995,386.403 L819.93,385.468 L819.93,386.403 z M574.989,344.333 L574.989,343.398 z M575.924,340.593 z M557.226,627.604 L556.291,627.604 L556.291,626.67 L557.226,627.604 L558.161,625.735 L560.031,625.735 L558.161,627.604 z M652.585,586.469 L651.65,585.534 L651.65,581.795 L652.585,581.795 L652.585,583.665 L653.52,584.599 L654.455,585.534 L652.585,585.534 z M729.246,620.125 L730.181,620.125 L730.181,619.19 L730.181,621.06 z M733.92,543.464 L733.92,542.529 L733.92,543.464 z M775.99,500.459 L776.925,499.525 L776.925,500.459 z M784.404,491.111 L783.469,492.045 L780.665,493.915 L781.599,493.915 L778.795,496.72 L776.925,495.785 L774.12,496.72 L775.055,495.785 L775.055,493.915 L775.99,492.98 L775.99,492.045 L775.055,491.111 L773.185,490.176 L774.12,490.176 L774.12,489.241 L774.12,490.176 L775.055,491.111 L779.73,491.111 L780.665,490.176 L781.599,488.306 L783.469,485.501 L784.404,483.631 L783.469,482.697 L784.404,483.631 L784.404,482.697 L785.339,482.697 L785.339,483.631 L786.274,485.501 L786.274,489.241 z M790.013,408.84 z M845.172,335.919 z M845.172,335.919 L846.107,334.984 z" fill="#D2D2D2"/>
    <path d="M515,284 L515,285 L517,285 L519,284 L519,283 L520,282 L523,280 L523,278 L525,277 L523,276 L522,277 L520,278 L515,282 L515,284 z M568,315 L567,316 L568,318 L569,318 L570,317 L570,314 L568,313 L568,315 z M565,326 L564,326 L563,327 L564,328 L566,328 L566,326 L565,326 z M571,570 L573,571 L574,571 L575,572 L576,571 L575,570 L571,570 z M85,349 L88,349 L88,350 L90,350 L90,347 L89,346 L90,346 L90,344 L88,343 L87,343 L86,344 L86,346 L88,347 L87,347 L85,345 L84,346 L84,348 L85,349 z" fill="#D2D2D2"/>
    <path d="M291,540 L728,429 L792,681 L355,792 z" fill="#EC3420"/>
    <path d="M329,565 L440,537 L476,678 L365,706 z" fill="#E57265"/>
    <path d="M664,665 L758,642 L763,662 L670,686 z M465,538 L568,512 M470,557 L605,522 M626,517 L720,493 M622,496 L698,477 M475,576 L578,550 M480,595 L598,565 M512,703 L614,677 M517,722 L634,692 M485,614 L587,588" fill-opacity="0" stroke="#0A0A0A" stroke-width="9" stroke-miterlimit="10"/>
    <g clip-path="url(#Clip_1)">
      <path d="M491.384,668.365 C497.65,693.498 470.366,721.941 430.443,731.895 C390.52,741.849 353.076,729.544 346.81,704.411 C340.543,679.279 367.828,650.835 407.751,640.881 C447.674,630.927 485.117,643.232 491.384,668.365 z" fill="#0A0A0A"/>
    </g>
    <path d="M547,866.5 C547,869.538 544.538,872 541.5,872 C538.462,872 536,869.538 536,866.5 C536,863.462 538.462,861 541.5,861 C544.538,861 547,863.462 547,866.5 z" fill="#DEF3F8"/>
    <path d="M419,604 C419,617.255 408.255,628 395,628 C381.745,628 371,617.255 371,604 C371,590.745 381.745,580 395,580 C408.255,580 419,590.745 419,604 z" fill="#0A0A0A"/>
    <path d="M708,844 L634,770 L664,740 L708,784 L832,660 L862,690 L708,844 z" fill="#EC3420"/>
  </g>
</svg>
