<?xml version="1.0" encoding="UTF-8"?>
<!DOCTYPE svg PUBLIC "-//W3C//DTD SVG 1.1//EN" "http://www.w3.org/Graphics/SVG/1.1/DTD/svg11.dtd">
<svg version="1.1" xmlns="http://www.w3.org/2000/svg" xmlns:xlink="http://www.w3.org/1999/xlink" x="0" y="0" width="1000" height="1000" viewBox="0, 0, 1000, 1000">
  <g id="Layer_1">
    <path d="M829.5,500 C829.5,681.978 681.978,829.5 500,829.5 C318.022,829.5 170.5,681.978 170.5,500 C170.5,318.022 318.022,170.5 500,170.5 C681.978,170.5 829.5,318.022 829.5,500 z" fill="#F7F7F7"/>
    <path d="M273.018,410.827 L564.214,319.828 L802.63,400.817 L758.041,663.803 L502.335,807.581 L273.018,603.744 L273.018,410.827 z" fill="#D2D2D2"/>
    <path d="M620.633,368.058 L646.112,382.617 L451.376,456.326 L434.086,435.397 L620.633,368.058 z" fill="#2F2F2F"/>
    <path d="M270.288,408.097 L495.055,540.045 L799.9,401.727 M495.965,539.135 L495.965,835.79" fill-opacity="0" stroke="#F7F7F7" stroke-width="7" stroke-miterlimit="10"/>
    <path d="M488.685,441.767 L473.215,284.339 L646.113,217 L607.893,397.177" fill="#EAEAEA"/>
    <path d="M372.207,580.994 L500.515,505.466 L625.183,585.544 C625.183,585.544 596.973,823.051 491.415,812.131 C385.857,801.211 372.207,580.994 372.207,580.994 z" fill="#EC3420"/>
    <path d="M552.384,646.513 L543.284,645.603 C544.194,632.864 543.284,612.844 533.274,598.284 C525.994,589.184 516.895,583.724 504.155,581.904 C492.325,580.994 482.315,583.724 474.125,591.004 C459.565,604.654 456.835,629.224 456.835,642.873 L446.826,641.963 L439.546,729.322 L547.834,735.692 z M485.955,603.744 C490.505,600.104 495.055,598.284 502.335,599.194 C509.615,600.104 515.075,603.744 518.714,609.204 C525.994,618.304 526.904,634.684 525.994,645.603 L474.125,643.783 C474.125,631.044 476.855,611.934 485.955,603.744 z" fill="#19272D"/>
    <path d="M556.934,397.177 L517.805,366.238 L531.454,348.038 L547.834,359.868 L574.224,290.709 L598.793,304.359 L556.934,397.177 z" fill="#FFFFFF"/>
    <path d="M333.077,716.582 L162,763.902 M372.207,771.181 L258.459,844.89 M405.876,813.041 L372.207,864 M598.793,807.581 L661.582,844.89 M646.113,777.551 L799.9,852.17 M701.622,733.872 L863.599,777.551" fill-opacity="0" stroke="#0A0A0A" stroke-width="10" stroke-miterlimit="10"/>
  </g>
</svg>
