<svg xmlns="http://www.w3.org/2000/svg" viewBox="0 0 1000 1000"><circle cx="453.21111" cy="498.48598" r="329.5" style="fill:#f7f7f7"/><polygon points="273 472.5 593 372.5 855 461.5 806 750.5 524.526 909 273 684.5 273 472.5" style="fill:#d2d2d2"/><polygon points="657.91 425.918 686.141 442.263 472.175 522.5 452.859 500.212 657.91 425.918" style="fill:#2f2f2f"/><polyline points="273 469.5 520 614.5 855 462.5" style="fill:none;stroke:#f7f7f7;stroke-miterlimit:10;stroke-width:7px"/><line x1="520.5" y1="614" x2="520.5" y2="940" style="fill:none;stroke:#f7f7f7;stroke-miterlimit:10;stroke-width:7px"/><polyline points="512.854 507.246 495.949 333.794 686.141 259.5 644.483 457.884" style="fill:#eaeaea"/><path d="M385.18568,660.41357l140.88654-83.40444L663,665S631.99707,926.44682,515.68654,913.93847,385.18568,660.41357,385.18568,660.41357Z" style="fill:#ec3420"/><path d="M582.92012,731.77324l-9.88569-.36948c.82445-13.94321-.09456-36.12166-11.53089-51.94945-7.43428-10.28956-17.97476-16.411-31.326-18.19339-12.75307-1.70253-24.05974,1.6127-32.69962,9.58641-15.98208,14.75073-19.3713,41.74716-19.94429,56.98749l-10.05777-.3757-8.73839,95.68511,119.14448,6.82583Zm-72.53958-46.97872c4.53387-4.176,10.02588-5.66947,17.28279-4.70068,8.07484,1.078,14.09812,4.49786,18.41526,10.45451,7.79474,10.75542,8.71054,28.13145,7.97949,40.14623l-57.51388-2.149C497.1228,714.93856,500.18272,694.18735,510.38054,684.79452Z" style="fill:#19272d"/><polygon points="588.121 457.857 544.565 424.298 560.435 403.702 577.879 417.143 607 340.5 633.862 355.818 588.121 457.857" style="fill:#fff"/><line x1="342" y1="809" x2="154" y2="861" style="fill:none;stroke:#0a0a0a;stroke-miterlimit:10;stroke-width:10px"/><line x1="385" y1="869" x2="260" y2="950" style="fill:none;stroke:#0a0a0a;stroke-miterlimit:10;stroke-width:10px"/><line x1="422" y1="915" x2="385" y2="971" style="fill:none;stroke:#0a0a0a;stroke-miterlimit:10;stroke-width:10px"/><line x1="634" y1="909" x2="703" y2="950" style="fill:none;stroke:#0a0a0a;stroke-miterlimit:10;stroke-width:10px"/><line x1="686" y1="876" x2="855" y2="958" style="fill:none;stroke:#0a0a0a;stroke-miterlimit:10;stroke-width:10px"/><line x1="747" y1="828" x2="925" y2="876" style="fill:none;stroke:#0a0a0a;stroke-miterlimit:10;stroke-width:10px"/></svg>