<svg xmlns="http://www.w3.org/2000/svg" xmlns:xlink="http://www.w3.org/1999/xlink" viewBox="0 0 1000 1000"><defs><clipPath id="a"><rect x="374.18899" y="568.93395" width="114.69194" height="145.05157" transform="translate(-144.77453 126.13422) rotate(-14.26724)" style="fill:none"/></clipPath></defs><circle cx="706.5" cy="814.5" r="100.5" style="fill:#fff"/><circle cx="445.5" cy="463.5" r="329.5" style="fill:#f7f7f7"/><polygon points="219.687 609.889 216.816 609.131 216.209 610.07 216.489 610.783 216.916 611.3 217.593 611.264 217.969 611.945 218.642 612.864 219.967 612.533 222.237 612.465 220.487 610.391 219.687 609.889" style="fill:#d2d2d2"/><polygon points="203.853 603.652 202.914 602.69 201.338 603.434 198.583 603.111 197.31 603.912 198.158 604.888 198.249 605.163 198.062 604.993 196.563 604.326 193.912 605.025 192.659 604.185 191.741 604.804 190.465 606.491 192.97 606.436 193.893 606.214 195.296 607.54 196.41 607.67 197.612 607.141 198.547 605.697 200.012 606.049 203.541 604.709 203.853 603.652" style="fill:#d2d2d2"/><polygon points="219.55 617.079 218.278 615.575 216.964 617.022 218.327 618.388 219.441 619.932 220.766 620.178 223.05 619.329 221.746 618.613 219.55 617.079" style="fill:#d2d2d2"/><polygon points="206.267 614.367 205.299 614.363 203.623 614.812 204.972 616.623 206.193 616.618 207.62 616.291 207.202 615.323 206.267 614.367" style="fill:#d2d2d2"/><polygon points="706.996 650.83 707.202 652.518 707.913 653.348 708.026 653.982 709.016 654.309 709.638 653.643 710.015 652.975 709.785 652.186 706.996 650.83" style="fill:#d2d2d2"/><polygon points="705.45 653.752 704.838 654.482 704.821 654.36 703.615 654.53 702.574 655.261 702.976 656.57 703.61 656.401 705.012 655.817 704.985 655.61 706.574 655.049 707.466 654.422 707.327 653.43 705.623 651.489 705.45 653.752" style="fill:#d2d2d2"/><polygon points="602.222 595.212 601.842 594.185 598.075 590.037 600.684 595.629 600.727 597.671 600.426 598.021 599.875 599.202 600.084 601.685 601.716 599.096 601.917 598.243 602.366 597.371 602.284 596.138 602.346 595.779 602.266 595.872 602.222 595.212" style="fill:#d2d2d2"/><polygon points="805.605 372.63 805.95 375.782 805.889 376.254 802.002 378.146 806.984 378.6 808.651 377.808 808.219 376.677 805.605 372.63" style="fill:#d2d2d2"/><path d="M835.101,308.68207l-.65715-.52883-.95342-.07781-.10338-.38317.296-.89173-.66951-1.92379-.48422-.831-.04885-.918-2.63018-.4499-.6193.91829-.50449-.475-.80686-.58112-.13334-.18007.01323-.2818.16744-.53.0497-1.09217-.6529-.99733-.32345-.33789-.15165-.245.68224-.69395.03737-1.10077-.60812-1.05661-1.226-.26681-.61549.23523-.61312-.00143-.68119-.21676-.61119-.38448-.64726-.29908-.29438.05246-.19519-.20145-.07539-.46849.01948-.40575.10622-.35843-.061-.84228-.18842-.43619.02873-1.11138-.36117-.49653-3.9877-20.72543-4.59651-3.09834-2.1379-1.07355-1.30878.01117-.96628.509-.15914.60681-.8873.59617-2.37,1.08583-1.74278,1.20423-.50471.09939-.47737-.03507-.71281-.25028-.4613-.38419-.18377-.78125-.16008-2.25419-3.613-.33685-7.41772,16.23378.12355,5.01859-1.06129,2.01355-.57771,1.80317-.10844,3.95165.24215,1.52545.34308.63745-.00737.30707-1.08117,2.12171.04322,1.13635-.26642.38361-1.43352,1.41707-1.26476,2.24284.13405,1.26732.32887.72434.02074.08608-.161.02059-.89293.33732-.5655,1.23538.19392,1.00488-.62448-.76211-1.10386.04755-.34942.33732-.0518-.22532-1.26312,1.57029-.48.1166-2.03669-.30864-1.10134,2.25085-.58622,3.37693-22.02458,3.96534-.00414-.01563-17.8144,3.207-.53183.17442-1.344.147L732.731,324.392l-2.18287,1.75715-2.44186,2.80359-4.112,5.82468-.38095.74082.588.28467.00591.01042-.03406.18764-.31318.49993-1.7264,1.81889-1.40911.25112-.59876.617-.10087.699.26389.37482-.88085.92778-1.56031,2.08425.97111.96493.25867.84552.28564-.10152.1666,1.16971,1.21657-.5968.13127-.24815.28158.14083-1.53026,1.48021.05912.86961.74159.995.27259.53728.361,1.43476.22505.3993-.00993.59573.18355.26495-.10809.18125-.43228.22553-.98772.21449-1.34631.78529-1.37069,1.33028-.77463,1.00874-.39466.85328-.08905-.03-1.9609,1.10135-.82039.73679-1.29231.05818-2.52305.32543-1.9859.499-1.17534.53276-.93909.01009-1.036-.49574-2.065-.36163-4.48583.12849-3.62108.77692-2.91819,1.00939-4.34793,2.12948-.67572.49569.26224.47164.50519,3.36509.87378.1082.0221.64672.31977.71112.67847.31512.33275-.01138.6738,1.24335.28915.72872.02215.32881-.24038.41609-.76442.67214-.88915,1.26-.54872,1.23105-.79,1.0135-1.21329.98635-1.156,1.22452-.92226,1.24834-2.12173,1.94874-.66389.54691-.07711.09237-6.19579,5.02937-2.5854,1.52228-3.75095,2.19807-4.23425,2.934-2.52878,2.23254-1.94262,2.40077-.87282.738-.971.32355-1.9524.23252-2.01018.64306-1.97406.98963-1.33131.80894-.44668.40223-.28593.11507-.31631-.03272-1.9774-.87739-.36563-.71847-1.48664-.25209-.59373-.44564-.95985.30267-.21338.61309-.0709.04908-.36621.02814-.50272-.16217-.70578-.46077-2.48629-.703-.616-.36607-1.02151-.28571-.72964-.01332.62525-1.81477.40266-.76292.42718-.05722.34632-.79878-.12749-.45785.95617-1.45957-.35053-.78528-.0278-.85292.151-1.35725.11008-.41245.19391.05792.27621-.83623,2.15838-1.75818,1.33845-2.23843,2.21441-2.82245.41444-2.36333.05016-5.165L645.527,374.354l-1.26207-3.18094-2.12416-5.98836-1.52437-3.66809-1.00058-1.47872-1.20948-1.09051-1.44887-.684L635.69287,358l-.76269.28036-1.00419.87956-1.677.87661-.65906.4907-.44973.65791-.24381.20747-.76128.25041-.35186,1.19191.65258.13952-.795,2.25768-.41954.18343-.72517.66515-.508,1.20961-.20924.14393-.56713.03695-1.35746-.34531-.746-.376-.22078-.32986-.10615-.54265.09664-.95-.15257-.697.21141-1.27556.36-.38137.8627-.257.9786-.599.05484-.48764.70854-.36453.36453-1.34806.06957-1.63973,1.806-2.41016.4677-1.2085-.45436-3.35256-.12861-1.464.05828-.82438-.4078-1.87932-.73307-1.69715-1.68869-1.41616-.16553-.285-.03349-.31667.05928-.2279.06251-.028,1.28044.30706,1.0783-.96364-.93642-.61878-.15173-.29087-.17956-.72733-.42068-.88348-.34345-.05623-.51524-.55817-.0844-.23875-.01748-.57532-.43657-.58636-1.12155-.741-1.7937-.551-3.6065-.73961-.62836-.36725-1.14138-.23869-1.12251.07922-.40825-.15471-.30449-.48908-.7062-.71313-.89166-.57208-1.36822-.29209-.87175.02441.29507-.28342.25807-.74863-.28614-.81025-1.22248-.906-.351.41624-2.0215.04167-.00527,1.334.54838.3653-1.0762-.48655.46267-.55492-1.12372.18608.41511-.54915-.07386-.7023-.1908-.19953-.04564-.81667-.07964-.13632.26386-1.01154.13475-.12256.22951.0077.13457.06579.23427.41317.59927.32518.5228-.07359.34243.04292.50287-.25363.08614-.16047.94855-.09344,4.80187-.12.71446-.25557.372-.27619.604.32906,1.49413.01384,1.91927-.31233,1.16935-.65723.36615-1.16476-.43419-.86082-.43518-.16949-.71783-.786-.71792-.4532-1.50652-.00759-.68741.9149.42237.53693-.61561.57542-.17961.06779-.40486-.17354-.60851.17593-1.24758-.4938-.24289-.2267-.04182-.10594.12812-.60667-.69234-.73382-1.01477-.30851.17922-.16086.08649-.66607-.1763-.57267-.25682-.38823-.1638-.91913-.57272-.94885-.11125-.57887.20806-.93072-.33221-1.06124-1.12006-.24789-.83265.365-.54813.96163-.41273-.1647-.78764-.06416-.61425.424-.54371.64563-.49231.46437-.28173.00228-.67114-.60733-1.27079-.01045-1.01171.61767-.61133.09949-.70784-.24508-1.28366.00062.06729-1.36461-.20991-1.26122.02232-.87468.58121-1.276-1.6129-.347-1.82151.467-1.79653.83447-1.79717,1.15655-1.98079.63377-2.42184.17376-1.9072.39522-1.73733.697-.45424-.08711-1.43571.98818-1.9784,1.68494-1.48261,1.52031-.81907,1.13815-.99351-.371-1.06316.16989-.62421.45142-.37285-.04695-.93681-.71186-1.24059-.18187-.72984.60861-.84488.29636-2.01226.18446-.29359-.68542-.55695-.66345-.523-.20783-.79087-.7716-2.089-2.337-2.22818-.98929-1.584-.18479-3.15306.055-.85763-.27509-.619.2156-2.15639,2.00419-.01766-1.13686-.07505-.22421.4421-.24618.43973-1.267,1.37676-2.04615-.1492-.50393.055-.29733,2.08463-2.35386.68368-1.20852-.16131-.23854,1.8643-.56779,1.28985-1.2234-1.61522-1.07963-1.37622-.14757-1.66558.30424-1.54571.52992-2.48256,1.4238-.95491.86065-1.8307,2.65013-.21869.53777-.22242-.16487-1.22457,1.014-1.285,1.46282-.7996,1.17923-.38367.97552-.444.42471-.84011.255-.94108.6125-1.2805,1.60917-.89311.79834-1.51549.7223-2.45062.75462-2.10135,1.2904-1.50524,1.73425-1.73741,1.46921-2.04482,1.28757-.1034.05327-1.06743.43094-.035.13777-.19024.09811-.61126-.08951-1.004-.36172-2.03945-.94531-.99071.62945.03191-.18455-.09077-.4563.57675.00184.83515-.47213.68149-.683-.01126-.28282,1.1694-1.11149-.4153-.68667.54171-.24773.03765-1.34921-.38-.45065.59209.33793.73008-.74364.37393-.77265-.15541-.872-.7768-.44271-.85818.42629-.252.6085-.0401,1.23692-1.74705.96065-.48371-.3964-.983-.05431-.13736.42608-.24509-.14059-.92955.10153-.81606.38234L523.411,326.1873l-.92084-.145-.345.1472-1.69746,1.807-1.48936,1.03554-3.95238,1.9024-.9713.31416-.616.05038-.95883-.39609-.23141-.17745-.01019-.05716,4.72727-5.523,2.75094-3.65985,4.34062-6.63218,1.11964-1.33009,2.70018-2.39943,4.74277-2.76208,2.36264-1.49827,1.9943-1.54266,1.22761-1.103.54849-.75516.19469-.165.35621-.02366,2.21378-1.75793-4.85848.363-1.446.62756-.761-.104-.62836-.84444-1.19321-.98406-3.03164.956-3.76493.40905-1.45476.38884-.35694-.17735-.87172-1.37681-1.47841.01373-1.8175.67892-1.98863,2.1275-1.762,1.12666-1.34762.24015-1.55505-.50718-2.90613-1.24848-2.27421-1.69452-2.54535-.36783-2.018.5918-.4292,1.04573-1.51632-2.60781-1.32293-.43178-2.18856-.964-1.492-.46376-2.26975-.48781-.82293-.03491-2.71922.30032-1.49356.50442-.00012-.00065-.23933.08112-1.022,1.32484-1.00614.58833-1.53812.46647-.87113-.15389-.79672-1.00141-3.11471-.57819-4.62251-.04761-2.58878-.25547-.56176-.342-.32446-.389-.23053-.83907-1.65611-2.6045-.86468-2.0645-.68431-2.52187-.10363-1.19511-.54165-.41847-1.1922-.5921-3.73256.12858,1.2193,7.38749-24.732,4.387-.00548-.0137L354.228,315.22168l-.00011-.00066L202.70358,342.2237l-1.33977.23875-12.493,2.22634.00012.00065-72.835,12.9797,1.761,3.40116.65583,1.04406.90256.90222,1.09795-.31175.522,1.20965.37407,2.26195.25631.3323.01174.04313-1.04493.0033-.78848.48407-.12854.99822.30394.73216.63986.3598-.42179.792-.47967,1.52382-.21733,1.09842.60336.83675-1.30454,1.61817-.37505.24367-.58918.15562-.35283-.02554-1.52421-1.09922-.93109.03229-1.09737.84149-.35669.127-8.5722.59348-1.46112-.27553-1.009-.57547-3.51885-.58109-2.823-.94876-2.19613.09573,1.00465,2.48638.18119,2.55821,1.10369,3.33.841,1.36744,2.51106,1.99721,1.36856,1.99834,1.71351,4.61577,2.004,3.32208.7224,2.06151.37308,1.42315,1.01273,2.11506-.08683.06947,1.23293,2.86215.34393.08923.59323,4.075.43281,2.05372-.07217,2.79167,1.4552-.6913-.36242.19148.581,1.29835.44367.61479.77674,5.32066,1.22583,4.60617-.10758,1.90366.44006,1.35587.56959,11.32422.5926,2.19668.15466,2.3942.4939,1.52919-.33015,1.55995.45715,5.17107.87824,6.20837-.24842.60583-.39863,2.26264-.23606,2.59544-.04995.00755-.39414.841-.40374,6.048-.33393,1.5046-.1589,2.47167,1.73609,2.34119.685,1.27578.43368,3.4676.39283,1.35214,1.24592,2.9577,1.1588,1.09212-.02911.00519.47853.41841.69.65029.252,1.23626-.17477,2.04927,1.42236,1.12615.76191,1.33631,1.02624,2.50143.24531,1.16446-.21676,3.97635.62529,3.04671-.37444,2.41356-.14824.56571-.01888.33342-.51,1.00141-.24352,2.16345-.2962,2.01557.60467,2.16213.8433,2.07709,3.26412,2.1438,3.42276,3.22719.83771,1.15946,1.05792,2.38375.33321,1.52137-.11407,2.57168,2.06379,4.04376.85491,3.41482,4.28811,3.21607,2.10292,1.94913,2.38057,1.05663,1.37135,2.15037.77211.28763.55432,2.31893-.19535,1.30508.55691,2.37516,1.21962-2.28407,1.88876,1.13752,1.12654.5039,1.317.26208.71308.479-.09992.0718.62335,2.25938.32407,1.739,1.65224,2.62814.66683,2.689,3.86184,3.16852,3.67734.17892.89267.92625.21928.53734.20579.89343-.28618,1.03779-.90724,1.67358.55386,2.41485.81919,1.8168,3.25275,2.31862,3.086,3.0152.52147.85066,1.42029,1.03877,1.11807,1.73654,2.10887.77432,1.69428,1.6028,1.76548.66542.37924.48049-.057,1.38842.76878,1.37491,2.23153.50812.47938.29255.24368.35615-.02512,1.94972.85976,2.02555.00878.93933.35375,1.20859.0173,1.79771,1.52642.46774,1.27379.98928,1.42869-.00487,2.80193-.768,1.40328-.14748,2.58569.40856,2.06293-.12734,1.18393-.47692,2.33221.67917,1.83781.80237.65376,1.34681,1.53321.68387,4.46779.69817,2.93955-.69259.82659.04034,1.52059,1.76065.11042,2.09294,2.66512.38091.28776-.87743.75575-.06178.88316.19494,1.79217,1.19388,2.355.89785,4.5623,2.85335,2.27265,2.46223,1.04889,2.07555.24266.8693-.0093,1.06135,1.0685,3.02644,1.036-.75024.38881,1.41293.34218.74222,28.93093-7.86228.36045-.10642L266.396,614.908l-.795,1.67112,51.96386,9.16205,25.93868-4.6778.92633-.16508,9.5669-1.73458-1.14657-6.61952,21.41806-3.68068,1.14724.89321,1.46163,1.72526,1.72313,1.25343,1.82715.57209,2.95737,1.75569,4.49715,3.18085,3.5659,2.04952,2.39569.846,1.61821.78211.80417.672,1.3097,1.69834,2.691,4.08993.34811,1.9534,1.25211,2.15542,2.03383,2.3833,1.69365,1.37208,1.27165.27285,1.20744.58668,1.56778,1.11643,1.84433.72157,1.92307.18241,2.46418.738,3.46884,1.44046,2.26919.63235,1.61976-.17121,1.0351-.94852.75116-1.62147.57224-.81878.833-.57907.38045-1.10724-.33826-.87926.1868-1.69774.71748-2.98835L428.392,629.589l1.48629-.48085,1.38783-.96143.33371-.81273.4123-.118,1.2704.37567,2.51782.06563,3.11478-.36069,1.92791-.41916.12615-.11023.90936.13358.77181-.18749.50385.21395,1.142,1.28,3.7918,1.96877.33292.61833,1.6293,1.28366,2.422,1.48256,1.33611,1.26706.472,1.19022,1.61888,2.18725,2.39326,2.57843.83926,1.07347-.08668.14234.45495,1.21215.7645,1.34327,1.28912,1.20793,1.63167.81212,1.56076,1.38766,1.86554,2.32149,2.15274,1.74384,2.32731,1.04182,1.151.87213.36476.84619.11714.78233-.17494.94237.39234,1.08427.70269.64422.24094.59828-.00548,1.22671.12628.58361,2.51121,2.24422,1.12751,1.44867,1.14285,2.46648,1.346,1.89436,1.47907.53153,2.00752-.02163,1.258.28339.97841.66124,1.48658.42219,1.5572-.04127,1.28473.30832,1.40339.7205,2.91416.29738,3.537-.31713,2.67034.30033,1.97944.92293,1.058.18.82312-.07379.25613-.87315.36769-.31526,2.04315-.72318-.1483-1.61238-.48454-1.026-.27971.03635.05667-.63647-.82919-2.085-3.08686-6.58423-1.51692-5.80027.237-.863.65853-3.56911,2.50951-6.5448.38029-.79,1.09367-1.57047-.20121-.34887.37935-.1135,2.70114-2.37125,1.74565-1.37752.01971-1.57482,2.12619-1.01472,1.85432-1.60477,1.96769-1.139,1.40468-1.32891.94422-.69339,4.26746-3.9976,1.45449-2.24628-.02111-.42146.81088-.3281,2.22677-2.17737,1.89032-2.73973-.23452.03235,1.24075-1.12016,5.42069-3.68475,3.01394-.85838-.02517-.3832.082.05045,1.0092-.78326.71169-.34687,3.83174-.78409,1.213-.39705,1.22309-.083,2.77955.39426,2.35146.81748,1.61171.27975,5.553-.34432,2.42953-1.04717.09275-.14612.10556.23632,2.90214,1.09733.8819-.581.383-.8053.10337-.97282-.55633-.56906-1.75769-.652-.98439.112-1.03992.732-.68686-.49856.27567-.5135.54987-.57316.94883-.516.99238.93279,1.90641-.27089,1.54288,1.60549.93447.73656,3.01949.24081.0956-.14528.176.35877.8164.84671-1.03367.47173-.03655,1.47658,4.50232.83511,3.53332.35173,1.26941-.64874.85277-1.97166.67826-.40571,1.263-.16972.69546.25134.97943,1.61005,1.01478.61157,1.40428-.97516.40234-.90865.13844-1.17751-.03465-.73223.139-.52289-.26059-1.8259,1.285.17329.61015.34079.19265.2478.27533.97687,1.58763.19765.553-.1539.40434.04943.50927.32772.87863.2187.91735.49664.82483,1.05308.38532.32147-.09558,2.31189,1.64641-1.10875.816-1.07956,1.23843.93483.54746-1.276.15448-.70114,1.09284-.90481-.175-1.76961-1.10287-.16659-.50525-.22179-1.19994-1.30213-1.05961.24283-3.29345-.58887-.87982-.695-1.31434-.573-.37717-.51056.16782-.23239.00126-.12172.304.02413,1.7432-1.18675-.69944-.47067.81435-.36921,1.86664-1.16825-.42415-.706-.1528-1.27409-.78964-.81773-.09367-.16959.01264-.08055.90113-.13224,1.68348.56124-.41836-1.74919.03642-.45466,1.15794-3.47856-3.09885,3.24533-.20951.39236-.68047.59779-1.56721.04575-1.03819,1.39319-.09549,1.1307-1.067-.08658-.50731-.44551.753-.69845.73371-.93531-.08836-.35953.33065.045.75467-.518.01763.00378,1.13424-.77854.01813-.02846,1.02334-.70251-.591.02331.81721-1.284.31611-.04418.63435.08269,2.29094-1.01438,1.66158-.963.20925-.04539.53709.02173,1.83415.475,3.19393-.77487.01023.04458,1.17-.2976,1.40214-.09328,1.42442-.30918.01416-.00388-1.8851.63292-2.469,1.32555,2.43709.3284,1.94842-.28513.66916-.32039-.24644.45025,6.5599-1.875.5461-.85851.67973.29853,1.76536-.82757-.05713.08847,4.69575-1.65486,3.55191-1.08925.99473-.5539,5.18734.46735,4.25766.97725,1.00468.50942.84843-.0189,3.1175,2.124.99244.5089.32363,1.816.91533,1.44733-.02177.00658,1.29935.17073.09631-.04281,4.13256.38128,1.37635-.87434,5.13054-4.50239-2.56289,1.079,1.21351-1.01541.92353-.31712,1.21088-.15909.638-.95739-.4232-.87493.06362-.34746.26-.33656,2.82915-1.00905,4.50493,1.6527,6.20921,5.84556,7.63564,4.62348,1.72991,1.89749.22351.83761.6201,4.60072-.47267,3.71822-.20963,5.99726.82974,1.1791.50916.53158,1.15843.698.41077-.56593.70326.09067.61129-.76635.24024-.75017-.0236-1.17023.76834.24376.38278-.41245-.13034.59425-.88605,1.497-.94928,2.17245-.36151.14542-1.146,1.01552,1.52941,1.00718.44862.47217,3.174,4.47093,1.48863,1.6192.96585.76878.97278.35311,1.23558,2.396-1.64756-1.45049,1.62709,3.8354.887.59922,1.12513.12483.91614,1.2852-.2582-1.59279.6337-.71634.82285.32988,1.30738,3.617,1.82011,2.38089,2.24153,1.01121,2.49276.38327.35837.958,1.9401,1.95587L709.534,643.081l-.09323.045-.26693.90342-.03732,1.01774,1.34757,1.6079,1.74622-.21535,1.7446-.90621,1.682-.00006,2.10121-1.48814.63684-.08514-.21142.768-.73034,1.56781-.15183.58728-.29076-.03323-1.112,1.92606-.6222-.36294-.79692.89122-.3.665-2.33115.85685-1.99892,1.43346,2.45987.50928.69177-.5647.57292-.2317,1.60612-1.35,1.14065-.6744-.01438-.30792.44164-.38513-.34938,1.50127,4.11482-6.13432,1.697-4.9151-1.66136.86573-.07328-3.00941.70559-1.86579.18085-.86378.962.679-.731-5.66224-.23487-6.39322-.73493-3.44227-1.00112-2.64833-.694-1.17494-.4042-.42744-.80008-2.08074-3.16866-5.34258-.8025-1.55654-.65006-.7238-1.78667-2.86742-.72921-1.37251-.3547-1.15712-.17767-1.23186.01415-.78413.50088-1.18134-.95437-1.26489-5.44125-6.24026-3.60781-5.36016-2.64565-4.453-2.03976-4.90119-.90778-1.67007-1.8598-5.23969-.25476-.38615-.12393-6.246-.67286.86777.01074-.65933-.19222-.54081.00331-.09509.81674.00025L693.812,558.933l-.8314-.84.21525-.09506.362-1.2484.40309-.6469.69638-1.71295-.65956-.1484.29043-.24885-.08673-1.16842-.43063-.34848-.03646-.07585.07359-.14.77461-.28923.53783-1.00434-.12659-.88459-.28813-.20784,1.67664-1.25723.29361-.94783.71325.18929-.44636-1.05077.13706-.44247-.365-.09441.08856-.22216.44858-.19468.54174-.42187.91594-1.71564-.35022-.87443.10867.16287,1.01213.04372.94172-.89678.51172-.77965-.08246-1.60656-.57861-.4517,1.30891.088,1.29108-.89829.50554-.74615.29448-.18072.72131-.0732,1.31673-.75437,1.0461-1.00042.71356-1.56348-.21443-.33976.66034.02406,1.04861-.97117,1.43463-1.69873.09119-1.29867.67007-.3759.95118-.40439,1.79722-1.88349.49845-.892.25944.3196.42112-4.06811,1.961-4.0928.73-1.06964,2.86875-2.7791,1.02874-.56-.01-.00708.83382-.43,5.31321-.8564.03738-.15381.69287,2.55477.59879-5.35115.07434-1.43876.91761-2.09256.51382-.76788.5399-.50794,1.34714-1.66694,2.02633-1.93106-.73321-.77378.74989.11745.73185-.40041,1.262-1.59912.87867-.031,4.178-.90924.19916.2237,1.0035.268.30995.05006-.68266,1.76721,2.28354-1.88916.17669-.22047.76966-.30185-.5124-.21647,1.10134-2.21305,3.44629-5.38612.28889.02276,2.9437-2.11614.15359.09682,2.16939-.96167.45467-.918.06915-.26341,1.50557-1.081-1.48938.634.08349-2.357-.23673-1.91925-.15747-.52.50716.49008-.82092-1.52356-.23046-.75538-2.28551-3.76531.0358.23121-2.72113-3.87667-2.37011-5.27025-.06706.00858-.53233-1.18284-.89831-1.48816-.57747-1.4603-.86311-1.15427-2.13542.05387-1.584-.147-1.83172,1.37936-.43791.03484-.20177-.49591.65089.34973,1.06959-.71708.99225-1.20411-.53769-1.24466-.53863-.70451-1.2373-.95124-.37178-.147.64881-.5179-.408-.7818,1.74082.14065-.15323-2.07182-.50879-1.41584-.653-.16442.6914-.83192-1.9878-.42062.47542-.11982.48568-1.11519.01539-1.37561.2664-.98972-.24883-1.14629-1.5606-1.061-1.64063-.54053-1.21224-1.15144-1.5922-.48841-3.0888-.3713.14812-.7529.62007.69945,2.51134.16937,1.70438.49677.68614.57024,2.04778,1.11323-.11793-2.2752-1.445-2.03331-.667-.5156.98159-.40037-.80031-1.43813-1.37906-1.61038-.96535-3.05361.05792-.75818-.09748-.94849-.1817-.762.20781-.92461-.34807-.60483.93909-1.40388-.42183-1.43539-1.0417-.45962-.01647-.01664.76857.14652.371-1.25877-.13464-.58887.37052-.307.71152.92479.53587-1.80314.21194-.20449-.83257,2.55461.70746,2.35642-1.09772.19563-.08187,1.48735.29673,1.96053,1.61317-1.18923.1252.05869.11649.23707-.34417.25032-.98306.27846-.41213,3.87617,1.819-1.38993.144-.54.47182.53418.4629.33261-.12739-.01037-1.28586.73065-.11719,2.34207.705,1.123,1.00382,1.23178,1.43057.51317,1.34309.68129.533-.47836.25907.4614.79692-.89122.01578.04309-.08667.51356-.69349,1.32771,1.15114.57377.52534.08457.38953.30721-.17319.61133-.20273,1.953,2.24836-.46547.22365.03068-.24344,1.38082-.66873,1.08031-.91334,2.66957-.48167,3.81162.10325,2.29131.34824.89369,1.7933,1.95773.93111-3.77426.14938-1.99481.3281-.65108.60172-.68365.69092-.38771.93138-.86389-.39051-1.35052.75769-3.06571,1.70408-1.14872.88142-2.55226.00654-.0021.03824-.12771.50293-1.45634-.0735.02221.37437-1.25026.24151-3.01556.25716-.35226.03407-.88065.04249-.00774-.1565-1.09128.1776-2.35815-.489,1.49444-.6174-1.01446-.62056-.28561.28206-1.49266-.33406-1.38218-1.53551-.51877-1.83812-1.9214-1.31416-1.74614-.81189-3.056-.05044-.05108,1.38258.53454,1.58514,1.14574,1.23842-.28482.79209.14975.642.3-.0051,1.15307-.20594,2.26069,1.34779.25321,1.831-1.60331,1.29447-3.73508.51654-.9344-.10216-.73235.50362-.53725.68469-.03629.70577-1.30426.033-1.20866.21967-.7141-.08592-.20945.38888.01574.06238-.12721.40173,1.67858,1.57288-4.14984.66946,2.55219-.01551-6.03341.59876-4.32115-.67275,1.75464-.11042-1.49831.0132-1.6.17562-1.47639-.04435-1.423-.43447-1.2563-.96576-1.60911-.98943.84116-1.37739-.00639.32793-.20887-.17819.17417,4.72386-1.944,1.92118-.48344,4.09217-1.76936.4549.10589.58909-.1637,5.13874-3.03986,1.16868-.46407,1.46415-.89674,1.41005-1.06393,1.12142-.54745,9.15755-6.87233-6.14792,2.49007-.77168.4723-.65448-.44561-2.03466.91471-.42933.333,2.89425-4.09036-3.87206,2.25458-1.9575,2.09767-.82367.6881-2.3255.737-2.637.58738-.95243.32159-.93584.642-.91053.23853-1.25321-.10875-.55231.1504-.55824.38229-.33782.13445-1.24426.22173-.18845.14031.53582-.66051,4.46338-3.36025,1.87487-1.03878,1.00991-1.22616.76181.10858,4.72529-1.027,1.30042-.81559,1.33243.09126,2.39566-1.04788,1.70933-.54356,1.66838-.15219-.00016-.01322.42434-.03808,3.27627-1.49977.59026-1.07376.06072.17412.66886-.84478,1.163-.07159.79144-.81971.36976.48791,1.37812-1.4477,1.31233-.41543L797.368,372.562l.19539.75556-.0112.95976.59717,1.09366-.12986.05149-.88825,1.47717-1.72886.82781,1.95361,1.28931,4.31943-1.86521-.73452-1.48564-1.75762-.70462-.65564.25993,2.321-1.34573.88777-.93441,4.0026-1.54484.78547-.23583,1.01.06975.19693-1.34925-.4416-1.83414-.97737-2.67415-2.13879-1.80573-.9475-.34007-.948.013-1.07345.59695.36123,1.05741,1.48012,1.23059.29341-.72455.32333.60992,1.36721,1.63477.0503.19892-1.08213.90425-1.714.94127-1.4228-.15142-.89744-.41514-.84366-2.22686-1.2766-.49.41426-.54629-2.5046-3.48733-1.30185-.51046-2.39086-.22054.83926-1.44144.58239-1.30724.24114-.76788.69639-.357,1.06052-1.01042.88122-.31971.063-1.2221-.74867-.76968-.84763.06128-.48918.24714-.5073-.48331-.39507-.83067-.3848-.60638.02558-.17414.00273-.00032.06176-.43843.13934-.948-.00588.00062.048-.3402.14628-2.03872.35656-.65422.61086-.60968.90011-4.05425,1.59188-2.58125,1.792-3.37489-.9425-.7817.5327-1.16947,1.10852-1.27883.10527-.05319.19608,1.10034,1.38718-.63935.30533-.22585,1.46451.80207.30783-1.68893-.07127-.21814.65361.115.0389-1.06189.14558.45328,1.29877-.58243.01415.03392,1.36217-.62815.465-1.11758.70445-.69048,1.57565-.0135,1.16622-1.32624.87826-1.51048-.17985-1.42587.81136-3.35537-.28429-1.26956.57536-.521.524.22114-.25185.36684-.22839,1.91507,1.89913-.43294.4275.08851-.28686.31436-.30652.7343.30568,1.57893,1.37219.04165,1.02967-1.06229-.59578-.81312,1.31912.29679.13887-1.33417.60648.40354,1.9546.66614.12708-1.29427-.03922-.20495.22026.00125,1.2423-.8842-.28174-1.01285-1.0676-1.62-.3384-.07334.25539-.05159.6376.13881.36424.67282,1.06186,1.459,1.03994-.838.5171-.651.0643-.37392.71169.06217.52534-2.56668.06608-.03067.63949.14184,1.30244-.09981,1.0089-.59556.3155-1.22931.85706-.31135,1.07682-.881,2.35983-.01421,2.47671-3.7291ZM750.46528,475.12188l-.1809-.07576-.167-.37656ZM651.48883,589.594l-1.29223.95249-.07653-.00526Zm-21.3993-6.971-.08248.02955.046-.0298Zm-7.487.91442-.00743.11741-.04846.02349Zm-1.26965.13986.51576.34141-.49438.24065ZM505.7182,637.31588l-.05266-1.0719.71113.46048.23151-.10605-.37973.39165Zm-3.67139,6.74781-.39112.38828-.74224,1.89122-1.62422-1.4938,1.31928-.03937,1.2507-.71965.25-.44548-.14272.44526ZM156.47773,546.90528l.94879.37764-.55456.36881-1.10338,1.26982-.1996-1.62754.53084-.39968Zm1.21213,5.27547,1.00839.70449.9856,1.36057.09595.17864-.834-.2523-.84249-.65982-.39333-1.03684Zm-1.41435-2.10762.51354.41606.33089.69024-.59723-.007-.68435-1.79493Zm-48.5478-151.41662.76587.62757.2717.00963L107.485,400.317Zm629.00293,21.98278-.1646-.68883.03211-.10764.08-.02843Zm.13027.23867-.14024.266.03971-.23926Zm.13077,39.7224-.4743-.2678-.0204-.04631ZM122.26351,372.05981l.08349-.0655-.001.10817ZM739.35188,477.2684l-.06641.02129-.75334.02221-.03622-.385Zm-239.599,178.98888.07577-.21869.06026.30784.05189.59417.0378-.13633.40213,2.05581-.39316-1.00177-.42332-.67107ZM120.5036,383.30712l.16267-.39009.00369.01689.18419-.06859Zm2.79887-12.50362-.00335-.16274.11021.11468Zm1.36206,7.18859.8672.47654.11276-.05654-.28562.86288-.01559,1.12456.385.59218.05581.40786-.10417.5025-.80017-.47161.35514-.45.00745-1.246Zm1.43322,5.37983.16638.14584.11307.19516.15765,1.33533-.32349.09747.00992-1.28892Zm-.73553,2.03109-.00112.04677-.18539-.36991-.21631-.26316,1.015.40093Zm-2.36064,6.78556.81873.40149.34016-1.92419.2414.1426.68252.02348-.21333,1.09433-.12892.27271-.574.53629-1.17893-.46082Zm-1.60774.3864.1891.243-.01446.00595-.20618.01717Zm5.01466-16.70459-.93953-.68167.17042-.24433.78295.57188.08263.13039Zm476.969-43.73684,1.38987.25449-1.03816.63588.76467.71553-.04722.21225-.64924.94725-.428,1.18119.00078,1.30726.315.90432.66669.86259.701.42651-.97216.21847-1.30922.68284-1.21283,1.05713-.78614,1.03509-.12068.79232.14021,1.13527.51163,1.93168.04494.74457-.04469.27187-1.12723-.00026-.11365.241.02806-1.05456-.2929-.71186-.00111-.43043.41205-.96775-.83075-.88937-1.2332.73071-.835,1.57161-.79409,2.18732-.44985.62688-.52692-.10859-.9307.49659-.33444.767-.13489.12933-.7313.108-.24673,1.24405.12677,1.51429-.1851.51424-1.28.71069-.40184.79787.10952.8721.36151.67264.21831,1.20234.15486,2.01281-.12769,1.77563-.40523,1.59695-.53344,1.34711-1.10993,2.089.06925.72944.923,1.24012.39683.80268.46305,1.81817.0173.18793-.79249,2.47659.03859.7619,2.14916,3.90165,1.70624,2.65091,1.72855,3.30638.70143,2.04229.39375,2.12616.21135,2.07226.02776,2.01926-.1571,1.95906-.32534,1.90129-.41979,1.51517-1.01839,2.73149-.39258,1.65274-.45622,1.32593L594.812,404.761l-1.01232,1.19757-.57326.48022-.15825.02811-2.42126,2.048-.95286.54643-.96142.309-1.24038.12992-.35848-.04208-.26165-.4002-.53414.01757-.63367-.35913-.08085-.07966-.54079-.56661-.73072-1.246-1.078-2.34506-.80262-1.32231-.68423-.53683-.43612-.47777-.50169-.83056-.55321-2.00594-.33745-1.95606.01539-.00266-.25335-1.41411-.27794-2.27166.0342-1.38369-.2999-1.19051-.57282-.64645-.29566-.56827-.27082-.9743-.3878-.76717-.40352-.38571-.045-.13912.06018-.51829-.12163-.8416-.15816-.15271-.11024-.15652.00943-.485-.41407-1.34633-.10649-.71875.04733-.85551.4282-1.8771.082-.85765-.086-.89924.1232-.96758.55129-2.33776-.06509-.86517-.526-.98958-.16633-.53193-.1056-.8728.07322-1.18748.22793-1.41011.46255-1.19949.758-1.08678.14371-1.39038-.52316-1.11765-.16807-1.428.11391-2.18625.25571-1.6027.46106-1.28359.25945-1.21055.07737-1.18687-.159-.36179.5033-.274.98732-1.93624.16836-.96415-.19846-.1516.255-1.11457.089-.19.1309-.0078.3817-.47907.34025-.86316-.17444-.69855.10582-.61822-.09228-.32846.55111-.79342-.0629-1.14838-.321-.34709.86644-.06936.81851-.57311-.11437-1.28567-.29164-.62906-.52878-.15685-.58409.02512-.86646-.77164-.43041,2.64493.3922.42822-.81356-.0278-.63321.7797-.36063,1.21845-.31129.503-.67761.42449-.43869.90163-.13754,1.228-.231.79442-.77438,1.548-.08842.77643.1612.54094-.47094-.00652-.86766.62305-.01628-.00047-.82211.24235-.86819,1.38517-.56611,1.98942-.36349.64187-.72224.6437-.49317.64135-.26782.58027-.00369.002-.10888-.03527-.11232-.34243.11961-1.13163.34728-1.30854.82423-2.27571.00187-.67124.08725-.30578,1.5-1.08942.84572-1.14763.07567-.87549.072.01493-.12128-.93574-.043-.41055-.01052-.00218-.04855-.37472.85074-1.5967,1.00218-2.34522.84939-2.39966.6667-2.334.50438-1.22989.46112-.38185.31868-.916.04765-.30075.15477.40642,1.13174.71491.99643-.80191.63024-1.12205.30314-1.29865.13253-.16536.456.06656.83152-.28048-.49479.73074-.48327,1.44684.26034,1.21848,1.09833.785,1.28-.10458-.19609-1.10034.10249-.349.70931-1.19351.01054-.1605,1.2201-.99363.74811-.93787.05563-.74833.50014-1.17041.48987-.37956.86547-.302.88188-.066,1.13177.23028,1.18157-.24026.07879-.57291.44766-.23771,1.49538-.41093,1.43447-1.01024.57046-1.1924.61762-.50356.91268-.17345,1.48893.07552,2.07739.39317,1.67673.69,2.45621,1.65533.85569.21874.00273.00019Zm-19.47305,3.67137-.25139.0286.23328-.28928ZM499.436,652.71757l.12772-.0673.01824.20463-.04317-.12864ZM748.64421,475.32626l-1.648,1.49377-.31129-1.16351-2.53849-.01874-.7621.58668-.99079.37905-1.0001.15258.56133-.721.335-.96821.28472-.07638,2.63179.29235-.55892-.78055.74661.13694-.152-1.84526,1.57916.241.74688.29752,1.29827,1.12666-.207-.086.6754.91908ZM746.412,468.2239l.04039-.43242.43245,1.01772-.31821-.24027ZM121.72521,374.45533l.25814,1.23642.29391.62664.78626.91619-.357-.01468-.10573.44069-.972-1.29211-.53368-1.01385-.13886-.85878-.36679-.58867.85272.5392Zm-11.35873,30.26319.10121,1.9731-.00663.12943-1.13308-2.67679.37647.0976ZM502.21022,663.61516l-.46687-1.45706,1.2092,2.71384Zm1.33436-24.21373-.26584.59139.07462-.53571.12115-.108Zm84.66371-45.21113-1.134.17374-1.14122,1.24686-1.88363.72445-1.20668-.22638-1.18923-.52243.45937-1.51278.84235-1.34074.83714-.052.86635.0589,1.34737.98561,2.41307.33ZM114.60753,411.26109l.52187.44764.46676-.09693-.51348.30437-2.5585.46741-.19169-.1652ZM527.26086,616.74186l-.30957.043-.9295-1.30712-.78871-.77469-.43838-1.2934,1.23143-.021.54025-1.25586.217-.03193.21705.612-.539,2.22488,1.57045.18451.09169-.046-.80183.76521Zm166.36451,6.7965.00718.05542-.01826-.0494Zm95.51529-248.75425-.01313-.11916.432-.96928.23128.21459-.11219.26433-.0938.48109ZM528.26324,329.76653l-.30485.19067.07724-.468Zm.90512-4.261-.552.49322.02571-.18142.02909.01169.31637-.323ZM508.79523,632.846l-.44434-.03151-.48429-.69125.89438.47373,1.49155-1.2202-.01282-.09086.50428-.07907,1.35284.0694-1.72152,1.97124Zm101.82086-44.26615-.99069-.43091.19353-1.29262.08343-2.20579.14822-.9484.49566.78911.29352,1.72284.76463.82893.52028.00313.45823.51095.05188.0866-.6567.36-1.21148.29959Zm82.13174,36.70779.88969-.02221.10005-.83993.19281,1.52885Zm5.05157-82.78641.222-.17051.26226.396Zm45.19422-45.88815.93042-.24815-.21255.5495Zm8.7689-9.538-1.11665.47572-2.89271,2.22045,1.48211.12061-3.02047,2.65494-2.19435-.97372-2.719,1.07445.92757-.8929.14523-.70759-.031-.81793.26386-.807.79946-1.483-1.08-.79568-.721-.34938-1.40246-.32513.93421-.41622.05139-.757.20932.54587.89544,1.1539.87428-.442.43885-.02961,1.63952.24645,1.52556.00081.98589-.67921,1.52449-2.414,2.18446-2.75569.05565-2.24809-.24513-.73927.72332.98343.48167-1.29671.69162.66915.10145.62988.72115,2.34994.16965,1.35344-.05848,2.85335Zm6.3947-88.02857.3-.43009.04.09547Zm59.26476-78.156-.01465-.05948.0029-.014Zm.05092-.32023.20059-.79845.12614.06392Z" style="fill:#d2d2d2"/><polygon points="543.839 303.875 544.163 304.875 545.263 305.119 546.49 304.628 547.865 303.75 548.47 303.247 548.736 302.339 551.675 299.966 552.286 298.833 552.154 298.479 553.615 296.56 552.402 295.848 550.908 296.609 548.954 298.044 544.464 301.824 543.844 302.504 543.535 303.921 543.842 303.866 543.839 303.875" style="fill:#d2d2d2"/><polygon points="596.664 334.707 596.438 336.441 596.58 337.848 597.583 338.264 598.254 337.987 599.095 337.16 599.228 336.082 598.856 334.646 599.185 333.936 597.201 333.41 596.664 334.707" style="fill:#d2d2d2"/><polygon points="594.082 345.767 592.61 345.797 592.307 346.73 592.947 347.881 593.624 348.277 594.625 348.177 594.939 347.305 594.73 346.396 594.082 345.767" style="fill:#d2d2d2"/><polygon points="600.48 589.557 601.575 591.225 602.661 591.456 604.222 591.603 604.97 590.53 604.028 589.873 600.48 589.557" style="fill:#d2d2d2"/><polygon points="113.939 368.754 114.757 369.085 117.094 369.373 117.487 369.667 118.773 369.91 119.319 369.181 119.368 368.269 118.512 367.346 118.173 366.174 117.878 366.155 117.882 366.019 118.538 365.722 119.43 364.718 118.764 363.686 116.686 363.08 116.212 363.299 115.366 364.114 114.84 365.227 115.482 366.175 116.724 366.567 116.476 366.835 116.442 367.316 116.304 366.947 114.464 365.337 113.105 365.903 113.04 366.858 113.495 368.11 113.939 368.754" style="fill:#d2d2d2"/><rect x="346.97595" y="500.39032" width="451.22224" height="260.22192" transform="translate(-137.72338 160.55779) rotate(-14.26724)" style="fill:#ec3420"/><rect x="374.18899" y="568.93395" width="114.69194" height="145.05157" transform="translate(-144.77453 126.13422) rotate(-14.26724)" style="fill:#e57265"/><rect x="694.50467" y="673.11074" width="96.58269" height="21.12746" transform="translate(-145.57785 204.14494) rotate(-14.26724)" style="fill:none;stroke:#0a0a0a;stroke-miterlimit:10;stroke-width:9px"/><line x1="494.28706" y1="557.56667" x2="596.65935" y2="531.50602" style="fill:none;stroke:#0a0a0a;stroke-miterlimit:10;stroke-width:9px"/><line x1="499.24477" y1="576.5712" x2="633.97643" y2="541.99966" style="fill:none;stroke:#0a0a0a;stroke-miterlimit:10;stroke-width:9px"/><line x1="655.41239" y1="536.90958" x2="748.82987" y2="513.07973" style="fill:none;stroke:#0a0a0a;stroke-miterlimit:10;stroke-width:9px"/><line x1="651.32839" y1="516.38487" x2="727.34649" y2="497.38034" style="fill:none;stroke:#0a0a0a;stroke-miterlimit:10;stroke-width:9px"/><line x1="504.20247" y1="595.57572" x2="606.57475" y2="569.51507" style="fill:none;stroke:#0a0a0a;stroke-miterlimit:10;stroke-width:9px"/><line x1="509.16017" y1="614.58025" x2="626.53988" y2="584.96642" style="fill:none;stroke:#0a0a0a;stroke-miterlimit:10;stroke-width:9px"/><line x1="540.55895" y1="722.82342" x2="642.93124" y2="696.76276" style="fill:none;stroke:#0a0a0a;stroke-miterlimit:10;stroke-width:9px"/><line x1="545.51665" y1="741.82794" x2="662.89636" y2="712.21411" style="fill:none;stroke:#0a0a0a;stroke-miterlimit:10;stroke-width:9px"/><line x1="514.11787" y1="633.58477" x2="616.49016" y2="607.52412" style="fill:none;stroke:#0a0a0a;stroke-miterlimit:10;stroke-width:9px"/><g style="clip-path:url(#a)"><ellipse cx="448.0412" cy="706.42595" rx="74.5" ry="46.86914" transform="translate(-160.27601 132.20586) rotate(-14.26724)" style="fill:#0a0a0a"/></g><path d="M419.21182,781.86107c16.24162-4.55416,25.5186-21.39807,31.37722-37.216,3.81568-10.30211,6.78428-22.45109.93456-31.75022a7.08974,7.08974,0,0,0-3.255-3.06082c-2.72676-1.03079-5.62419.85963-7.86394,2.72544A120.30943,120.30943,0,0,0,424.858,728.13129c-6.1413,7.39641-11.50628,17.99047-6.42,26.14845,4.72792,7.58327,15.53471,8.11232,24.33552,6.56147a98.35187,98.35187,0,0,0,40.57329-17.2205,40.25825,40.25825,0,0,0-40.50792.49692A319.44541,319.44541,0,0,0,504.61469,731.29c-4.41707-.25-5.38524,7.29135-1.5765,9.54224s8.81149.23846,12.04669-2.77924l1.21411,5.38752" style="fill:none;stroke:#1a1a21;stroke-linecap:round;stroke-linejoin:round;stroke-width:3px"/><circle cx="570.5" cy="886.5" r="5.5" style="fill:#def3f8"/><circle cx="424" cy="624" r="24" style="fill:#0a0a0a"/><polygon points="728 875.698 654.15 801.849 683.85 772.151 728 816.302 852.15 692.151 881.85 721.849 728 875.698" style="fill:#ec3420"/></svg>